<svg width="24" height="24" viewBox="0 0 24 24" fill="none" xmlns="http://www.w3.org/2000/svg">
<path d="M9.66747 19.0011H14.3339C14.3339 19.8346 13.8892 20.6048 13.1674 21.0216C12.4454 21.4384 11.556 21.4384 10.834 21.0216C10.1122 20.6048 9.66751 19.8346 9.66751 19.0011H9.66747ZM12.094 2.66851C11.614 2.64287 11.1444 2.81593 10.7959 3.14685C10.4472 3.47792 10.2501 3.93768 10.2508 4.41849V5.30713V5.30699C9.22805 5.66857 8.3424 6.33816 7.71566 7.22353C7.08906 8.10891 6.75188 9.16667 6.75095 10.2515V11.7196V11.7194C6.75068 12.6471 6.38204 13.5367 5.72627 14.1927L5.48323 14.4358C5.24317 14.6765 5.08301 14.9855 5.02468 15.3204C4.96622 15.6553 5.0122 16.0002 5.15651 16.3081C5.3 16.5964 5.52229 16.838 5.79762 17.0049C6.07308 17.1719 6.39002 17.2572 6.71202 17.2511H17.3497C17.7873 17.2511 18.2069 17.0775 18.5164 16.7682C18.8259 16.4592 19 16.0398 19.0006 15.6023V15.5283V15.5285C19.0029 15.1357 18.8649 14.7551 18.6116 14.4551L18.1003 13.8582C17.5546 13.2257 17.2533 12.4187 17.2505 11.5834V10.2515C17.2496 9.16663 16.9124 8.10887 16.2858 7.2235C15.6591 6.33812 14.7734 5.66854 13.7507 5.30696V4.51762C13.7507 3.57069 13.0411 2.72097 12.0941 2.66847L12.094 2.66851Z" fill="#000"/>
</svg>
