<svg width="24" height="24" viewBox="0 0 24 24" fill="#000" xmlns="http://www.w3.org/2000/svg">
<path fill-rule="evenodd" clip-rule="evenodd" d="M12.0021 11.3996C14.0453 11.3996 15.7019 9.74298 15.7019 7.69978C15.7019 5.65658 14.0453 4 12.0021 4C9.95894 4 8.30236 5.65658 8.30236 7.69978C8.30236 9.74298 9.95894 11.3996 12.0021 11.3996ZM4.69995 18.8854V20H19.3043V18.8854C19.3043 15.9256 17.075 13.5254 14.326 13.5254H9.67833C6.92927 13.5254 4.69995 15.9256 4.69995 18.8854Z" fill="#172E48"/>
<path fill-rule="evenodd" clip-rule="evenodd" d="M20.5 10.5V8H19.5V10.5H17V11.5H19.5V14H20.5V11.5H23V10.5H20.5Z" fill="#172E48"/>
</svg>
