<svg width="16" height="16" viewBox="0 0 16 16" fill="none" xmlns="http://www.w3.org/2000/svg">
<path d="M12.9758 3.43207H10.6791V3.04929C10.6791 2.94777 10.6388 2.8504 10.567 2.77862C10.4952 2.70683 10.3978 2.6665 10.2963 2.6665C10.1948 2.6665 10.0974 2.70683 10.0256 2.77862C9.95385 2.8504 9.91352 2.94777 9.91352 3.04929V3.43207H6.08568V3.04929C6.08568 2.94777 6.04535 2.8504 5.97357 2.77862C5.90178 2.70683 5.80442 2.6665 5.7029 2.6665C5.60138 2.6665 5.50401 2.70683 5.43223 2.77862C5.36044 2.8504 5.32011 2.94777 5.32011 3.04929V3.43207H3.02341C2.92189 3.43207 2.82453 3.4724 2.75274 3.54419C2.68095 3.61597 2.64063 3.71333 2.64062 3.81486V12.2361C2.64062 12.3376 2.68095 12.435 2.75274 12.5068C2.82453 12.5786 2.92189 12.6189 3.02341 12.6189H12.9758C13.0773 12.6189 13.1747 12.5786 13.2465 12.5068C13.3182 12.435 13.3586 12.3376 13.3586 12.2361V3.81486C13.3586 3.71333 13.3182 3.61597 13.2465 3.54419C13.1747 3.4724 13.0773 3.43207 12.9758 3.43207ZM5.32011 4.19764V4.58042C5.32011 4.68194 5.36044 4.77931 5.43223 4.85109C5.50401 4.92288 5.60138 4.96321 5.7029 4.96321C5.80442 4.96321 5.90178 4.92288 5.97357 4.85109C6.04535 4.77931 6.08568 4.68194 6.08568 4.58042V4.19764H9.91352V4.58042C9.91352 4.68194 9.95385 4.77931 10.0256 4.85109C10.0974 4.92288 10.1948 4.96321 10.2963 4.96321C10.3978 4.96321 10.4952 4.92288 10.567 4.85109C10.6388 4.77931 10.6791 4.68194 10.6791 4.58042V4.19764H12.593V5.72878H3.40619V4.19764H5.32011ZM12.593 11.8533H3.40619V6.49434H12.593V11.8533Z" fill="#000" stroke="#314358" stroke-width="0.333333"/>
</svg>
