<svg width="24" height="24" viewBox="0 0 24 24" fill="none" xmlns="http://www.w3.org/2000/svg">
<path fill-rule="evenodd" clip-rule="evenodd" d="M19.3851 9.38059L12.5068 3.91103C12.3629 3.79634 12.1844 3.73389 12.0004 3.73389C11.8163 3.73389 11.6378 3.79634 11.4939 3.91103L4.61479 9.38059C4.42306 9.53308 4.26821 9.72687 4.16177 9.94751C4.05533 10.1682 4.00003 10.41 4 10.6549V18.3239C4 18.8422 4.2059 19.3393 4.5724 19.7058C4.9389 20.0723 5.43598 20.2782 5.95429 20.2782H10.3718V16.4087C10.3718 16.1927 10.4576 15.9856 10.6103 15.8329C10.763 15.6802 10.9701 15.5944 11.1861 15.5944H12.8146C13.0306 15.5944 13.2377 15.6802 13.3904 15.8329C13.5431 15.9856 13.6289 16.1927 13.6289 16.4087V20.2782H18.0456C18.5639 20.2782 19.061 20.0723 19.4275 19.7058C19.794 19.3393 19.9999 18.8422 19.9999 18.3239V10.6558C19.9999 10.4108 19.9446 10.169 19.8381 9.94833C19.7317 9.72768 19.5768 9.5339 19.3851 9.3814" fill="#000"/>
</svg>
