<svg width="20" height="20" viewBox="0 0 20 20" fill="none" xmlns="http://www.w3.org/2000/svg">
<rect width="20" height="20" rx="10" fill="#FEE500"/>
<path d="M10.0003 5.6001C7.37138 5.6001 5.24023 7.28045 5.24023 9.35324C5.24023 10.6933 6.13119 11.8692 7.47143 12.5332C7.39852 12.7847 7.00289 14.1509 6.98714 14.2582C6.98714 14.2582 6.97767 14.3389 7.02989 14.3696C7.08211 14.4004 7.14354 14.3765 7.14354 14.3765C7.2933 14.3556 8.88019 13.2409 9.15486 13.0473C9.42925 13.0862 9.71179 13.1064 10.0003 13.1064C12.6293 13.1064 14.7604 11.4261 14.7604 9.35324C14.7604 7.28045 12.6293 5.6001 10.0003 5.6001Z" fill="#181600"/>
</svg>
