<svg width="24" height="24" viewBox="0 0 24 24" fill="none" xmlns="http://www.w3.org/2000/svg">
<path fill-rule="evenodd" clip-rule="evenodd" d="M15.864 9.22736L11.1974 13.894L8.13653 10.8332C8.00581 10.6906 7.93518 10.503 7.93939 10.3095C7.9436 10.1161 8.02232 9.93176 8.15913 9.79495C8.29594 9.65814 8.48028 9.57943 8.67371 9.57522C8.86714 9.57101 9.05473 9.64163 9.19737 9.77236L11.1974 11.7724L14.8032 8.16653C14.8729 8.09687 14.9555 8.04162 15.0466 8.00392C15.1376 7.96622 15.2351 7.94682 15.3336 7.94682C15.4321 7.94682 15.5297 7.96622 15.6207 8.00392C15.7117 8.04162 15.7944 8.09687 15.864 8.16653C15.9337 8.23618 15.9889 8.31887 16.0266 8.40988C16.0643 8.50089 16.0837 8.59843 16.0837 8.69694C16.0837 8.79545 16.0643 8.89299 16.0266 8.984C15.9889 9.07501 15.9337 9.1577 15.864 9.22736V9.22736ZM19.6224 10.8082C19.7005 10.7301 19.7444 10.6241 19.7444 10.5136C19.7444 10.4031 19.7005 10.2972 19.6224 10.219L18.414 9.01069C18.3622 8.95903 18.325 8.89459 18.3061 8.82391C18.2872 8.75322 18.2874 8.6788 18.3065 8.60819L18.7482 6.95819C18.7767 6.85144 18.7616 6.73775 18.7063 6.64211C18.651 6.54647 18.5599 6.47672 18.4532 6.44819L16.8032 6.00653C16.7323 5.98755 16.6677 5.9502 16.6159 5.89825C16.5641 5.84631 16.527 5.78161 16.5082 5.71069L16.0665 4.06069C16.0378 3.95389 15.9679 3.86284 15.8721 3.80753C15.7764 3.75222 15.6626 3.73718 15.5557 3.76569L13.9049 4.20819C13.8343 4.22708 13.76 4.22701 13.6895 4.20799C13.619 4.18897 13.5547 4.15167 13.5032 4.09986L12.2949 2.89153C12.2167 2.81341 12.1108 2.76953 12.0003 2.76953C11.8898 2.76953 11.7838 2.81341 11.7057 2.89153L10.4974 4.10069C10.4456 4.15243 10.3812 4.18967 10.3106 4.20868C10.24 4.2277 10.1656 4.22781 10.0949 4.20903L8.44487 3.76569C8.39195 3.75146 8.33675 3.7478 8.28243 3.75493C8.2281 3.76206 8.17571 3.77983 8.12826 3.80723C8.08081 3.83463 8.03923 3.87113 8.0059 3.91462C7.97257 3.95811 7.94815 4.00775 7.93403 4.06069L7.49153 5.71069C7.4727 5.78135 7.4356 5.84581 7.38397 5.8976C7.33233 5.94938 7.26797 5.98666 7.19737 6.00569L5.54653 6.44819C5.43995 6.4769 5.3491 6.54672 5.29395 6.64234C5.2388 6.73796 5.22384 6.85156 5.25237 6.95819L5.69403 8.60819C5.71318 8.6788 5.71333 8.75322 5.69445 8.82391C5.67557 8.89459 5.63834 8.95903 5.58653 9.01069L4.3782 10.219C4.33942 10.2577 4.30865 10.3036 4.28766 10.3541C4.26667 10.4047 4.25586 10.4589 4.25586 10.5136C4.25586 10.5683 4.26667 10.6225 4.28766 10.6731C4.30865 10.7236 4.33942 10.7696 4.3782 10.8082L5.58653 12.0165C5.63834 12.0684 5.67556 12.1329 5.69443 12.2038C5.71331 12.2746 5.71317 12.3491 5.69403 12.4199L5.25237 14.0699C5.22384 14.1765 5.2388 14.2901 5.29395 14.3857C5.3491 14.4813 5.43995 14.5512 5.54653 14.5799L7.19737 15.0224C7.26797 15.0414 7.33233 15.0787 7.38397 15.1305C7.4356 15.1822 7.4727 15.2467 7.49153 15.3174L7.9332 16.9674C7.94782 17.0208 7.97296 17.0709 8.00716 17.1145C8.04136 17.1582 8.08393 17.1945 8.13237 17.2215L6.58153 21.4024H10.9007L11.9999 18.4374L13.1007 21.4024H17.419L15.8682 17.2215C15.9166 17.1946 15.9592 17.1583 15.9932 17.1146C16.0273 17.071 16.0522 17.0209 16.0665 16.9674L16.5082 15.3174C16.527 15.2466 16.5642 15.182 16.616 15.1302C16.6678 15.0784 16.7324 15.0412 16.8032 15.0224L18.4532 14.5807C18.5061 14.5666 18.5558 14.5422 18.5993 14.5088C18.6428 14.4755 18.6793 14.4339 18.7067 14.3865C18.7341 14.339 18.7518 14.2866 18.759 14.2323C18.7661 14.178 18.7624 14.1228 18.7482 14.0699L18.3065 12.4199C18.2874 12.3492 18.2872 12.2748 18.3061 12.2041C18.325 12.1335 18.3622 12.069 18.414 12.0174L19.6224 10.809V10.8082Z" fill="#000"/>
</svg>
