<svg width="24" height="24" viewBox="0 0 24 24" fill="none" xmlns="http://www.w3.org/2000/svg">
<path fill-rule="evenodd" clip-rule="evenodd" d="M5.91304 7.7561H18.087C18.3291 7.7561 18.5614 7.66359 18.7326 7.49892C18.9038 7.33426 19 7.11092 19 6.87805C19 6.64518 18.9038 6.42184 18.7326 6.25717C18.5614 6.09251 18.3291 6 18.087 6H5.91304C5.67089 6 5.43865 6.09251 5.26742 6.25717C5.0962 6.42184 5 6.64518 5 6.87805C5 7.11092 5.0962 7.33426 5.26742 7.49892C5.43865 7.66359 5.67089 7.7561 5.91304 7.7561ZM18.087 11.122H5.91304C5.67089 11.122 5.43865 11.2145 5.26742 11.3791C5.0962 11.5438 5 11.7671 5 12C5 12.2329 5.0962 12.4562 5.26742 12.6209C5.43865 12.7855 5.67089 12.878 5.91304 12.878H18.087C18.3291 12.878 18.5614 12.7855 18.7326 12.6209C18.9038 12.4562 19 12.2329 19 12C19 11.7671 18.9038 11.5438 18.7326 11.3791C18.5614 11.2145 18.3291 11.122 18.087 11.122ZM18.087 16.2439H5.91304C5.79314 16.2439 5.67441 16.2666 5.56364 16.3107C5.45286 16.3549 5.35221 16.4195 5.26742 16.5011C5.18264 16.5826 5.11539 16.6794 5.0695 16.7859C5.02362 16.8925 5 17.0066 5 17.122C5 17.2373 5.02362 17.3514 5.0695 17.458C5.11539 17.5645 5.18264 17.6613 5.26742 17.7428C5.35221 17.8244 5.45286 17.889 5.56364 17.9332C5.67441 17.9773 5.79314 18 5.91304 18H18.087C18.2069 18 18.3256 17.9773 18.4364 17.9332C18.5472 17.889 18.6478 17.8244 18.7326 17.7428C18.8174 17.6613 18.8846 17.5645 18.9305 17.458C18.9764 17.3514 19 17.2373 19 17.122C19 17.0066 18.9764 16.8925 18.9305 16.7859C18.8846 16.6794 18.8174 16.5826 18.7326 16.5011C18.6478 16.4195 18.5472 16.3549 18.4364 16.3107C18.3256 16.2666 18.2069 16.2439 18.087 16.2439Z" fill="#000"/>
</svg>
