<svg width="24" height="24" viewBox="0 0 24 24" fill="none" xmlns="http://www.w3.org/2000/svg">
<path d="M17.6218 8.49072H13.75V9.36564H17.6218C17.9063 9.36564 18.1249 9.58445 18.1249 9.84689V19.5812C18.1249 19.8437 17.9061 20.0625 17.6218 20.0625H6.37816C6.09374 20.0625 5.87507 19.8436 5.87507 19.5812V9.86876C5.87507 9.60631 6.09388 9.38751 6.37816 9.38751L9.81259 9.38767V8.51275L6.37816 8.5126C5.61246 8.5126 5 9.12509 5 9.8688V19.6031C5 20.3468 5.6125 20.9593 6.37816 20.9593H17.6218C18.3875 20.9593 19 20.3468 19 19.6031V9.8688C19 9.10326 18.3875 8.4908 17.622 8.4908L17.6218 8.49072Z" fill="#000" stroke="#172E48" stroke-width="0.4"/>
<path d="M11.5633 4.42195V15.8844H12.4382V4.42195L14.6913 6.0844L15.2164 5.38448L12.0008 3L8.78516 5.38448L9.31019 6.0844L11.5633 4.42195Z" fill="#000" stroke="#172E48" stroke-width="0.4"/>
</svg>
