<svg width="24" height="24" viewBox="0 0 24 24" fill="none" xmlns="http://www.w3.org/2000/svg">
<path fill-rule="evenodd" clip-rule="evenodd" d="M19.5344 4H4.46604C4.24402 4 4.03109 4.0882 3.8741 4.24519C3.7171 4.40218 3.62891 4.61511 3.62891 4.83713V6.23263H20.3716V4.83713C20.3716 4.61511 20.2834 4.40218 20.1264 4.24519C19.9694 4.0882 19.7564 4 19.5344 4ZM4.61337 17.9701C4.61337 18.5028 4.82493 19.0137 5.20154 19.3904C5.57814 19.7672 6.08895 19.979 6.62166 19.9792H10.326V16.8366C10.326 16.6146 10.4142 16.4016 10.5712 16.2446C10.7282 16.0877 10.9411 15.9995 11.1631 15.9995H12.8374C13.0594 15.9995 13.2723 16.0877 13.4293 16.2446C13.5863 16.4016 13.6745 16.6146 13.6745 16.8366V19.9784H17.3788C17.9115 19.9781 18.4223 19.7664 18.7989 19.3896C19.1755 19.0128 19.3871 18.5019 19.3871 17.9692V11.1156H4.61337V17.9701ZM3.62891 9.0228C3.62891 9.24482 3.7171 9.45775 3.8741 9.61474C4.03109 9.77173 4.24402 9.85993 4.46604 9.85993H19.5344C19.7564 9.85993 19.9694 9.77173 20.1264 9.61474C20.2834 9.45775 20.3716 9.24482 20.3716 9.0228V7.6273H3.62891V9.0228Z" fill="#000"/>
</svg>
