<svg width="180" height="180" viewBox="0 0 180 180" fill="none" xmlns="http://www.w3.org/2000/svg">
<path d="M165.289 66.4445C173.242 60.2264 178.364 50.5554 178.364 39.6818C178.364 20.9291 163.162 5.72726 144.409 5.72726C133.535 5.72726 123.856 10.8491 117.646 18.8018C109.031 15.6354 99.72 13.9091 90 13.9091C80.28 13.9091 70.9773 15.6354 62.3536 18.8018C56.1436 10.8491 46.4645 5.72726 35.5909 5.72726C16.8382 5.72726 1.63635 20.9291 1.63635 39.6818C1.63635 50.5554 6.75817 60.2345 14.7109 66.4445C11.5445 75.06 9.81817 84.3709 9.81817 94.0909C9.81817 138.371 45.72 174.273 90 174.273C105.349 174.273 119.684 169.961 131.866 162.483C134.787 168.93 141.005 173.553 148.369 174.191V174.273H170.174V95.1627H170.157C170.157 94.8027 170.174 94.4509 170.174 94.0909C170.174 84.3791 168.447 75.0682 165.281 66.4445H165.289ZM90 134.182C67.86 134.182 49.9091 116.231 49.9091 94.0909C49.9091 71.9509 67.86 54 90 54C112.14 54 130.091 71.9509 130.091 94.0909C130.091 116.231 112.14 134.182 90 134.182V134.182Z" fill="#000"/>
</svg>
