<svg width="512" height="110" viewBox="0 0 512 110" fill="none" xmlns="http://www.w3.org/2000/svg">
<path d="M65.4211 31.5198L62.7595 37.4035C56.5956 32.2203 48.6106 29.2784 39.6449 29.2784C16.5304 29.2784 0 45.9489 0 69.3436C0 92.8784 16.5304 109.689 39.6449 109.689C48.4705 109.689 56.3154 106.887 62.4793 101.844L64.7207 107.167H84.8934V31.5198H65.4211ZM43.1471 86.7145C33.341 86.7145 26.1965 79.2898 26.1965 69.3436C26.1965 59.5374 33.341 52.2528 43.1471 52.2528C52.9533 52.2528 60.0978 59.5374 60.0978 69.3436C60.0978 79.2898 52.9533 86.7145 43.1471 86.7145Z" fill="#000"/>
<path d="M101.337 107.167H127.394V4.20265H101.337V107.167Z" fill="#000"/>
<path d="M204.825 31.5198L202.163 37.4035C196 32.2203 188.015 29.2784 179.049 29.2784C155.934 29.2784 139.404 45.9489 139.404 69.3436C139.404 92.8784 155.934 109.689 179.049 109.689C187.875 109.689 195.719 106.887 201.883 101.844L204.125 107.167H224.297V31.5198H204.825ZM182.551 86.7145C172.745 86.7145 165.601 79.2898 165.601 69.3436C165.601 59.5374 172.745 52.2528 182.551 52.2528C192.357 52.2528 199.502 59.5374 199.502 69.3436C199.502 79.2898 192.357 86.7145 182.551 86.7145Z" fill="#000"/>
<path d="M283.048 31.2396C274.082 31.2396 267.638 33.7612 262.315 39.9251L258.252 31.5198H240.741V107.167H266.798V68.7832C266.798 59.1172 270.72 55.0546 279.826 55.0546H290.052V31.2396H283.048Z" fill="#000"/>
<path d="M352.684 4.20265V34.3216C347.36 30.9595 340.916 29.1383 333.912 29.1383C310.797 29.1383 294.267 45.9489 294.267 69.3436C294.267 92.8784 310.797 109.829 333.912 109.829C342.737 109.829 350.582 106.747 356.746 101.564L359.268 107.167H378.46V4.20265H352.684ZM337.414 86.7145C327.748 86.7145 320.464 79.2898 320.464 69.4837C320.464 59.5374 327.748 52.1128 337.414 52.1128C347.22 52.1128 354.365 59.5374 354.365 69.4837C354.365 79.2898 347.22 86.7145 337.414 86.7145Z" fill="#000"/>
<path d="M394.924 22.1339H420.7V0H394.924V22.1339ZM394.784 107.167H420.84V31.5198H394.784V107.167Z" fill="#000"/>
<path d="M482.862 29.4185C473.056 29.4185 464.65 33.0608 459.047 39.3647L455.544 31.5198H437.193V107.167H463.249V66.822C463.249 57.1559 467.872 51.5524 475.997 51.5524C482.582 51.5524 485.944 55.8951 485.944 64.7207V107.167H512V61.0784C512 41.8863 500.373 29.4185 482.862 29.4185Z" fill="#000"/>
</svg>
